<svg xmlns="http://www.w3.org/2000/svg" height="30" fill="#0073f1" viewBox="0 -960 960 960" width="30"><path d="M297.956-126q-21.781 0-36.369-14.926Q247-155.851 247-178.044q0-22.194 14.619-37.075Q276.237-230 298-230q21.763 0 36.881 14.926Q350-200.149 350-177.956q0 22.194-14.925 37.075Q320.149-126 297.956-126Zm368 0q-21.781 0-36.368-14.926Q615-155.851 615-178.044q0-22.194 14.619-37.075Q644.237-230 666-230q21.763 0 36.881 14.926Q718-200.149 718-177.956q0 22.194-14.926 37.075Q688.149-126 665.956-126ZM229-752l114 240h263q9 0 16.5-4.5T634-529l108-195q6-11 1-19.5t-17-8.5H229Zm-11.97-22H717.5q26.5 0 39.75 21.839Q770.5-730.323 759.5-708L655.859-517.725Q647.5-505.5 634.564-497.75 621.627-490 608.206-490H324l-54 99q-7 12 0 26t22 14h426v22H295.08q-31.43 0-45.005-23.087-13.575-23.087-.075-48.678l65-116.058L165.133-832H95v-22h84l38.03 80ZM343-512h282-282Z"/></svg>